<?xml version="1.0" encoding="utf-8"?>
<!-- Generator: Adobe Illustrator 21.0.2, SVG Export Plug-In . SVG Version: 6.00 Build 0)  -->
<svg version="1.1" id="Ebene_1" xmlns="http://www.w3.org/2000/svg" xmlns:xlink="http://www.w3.org/1999/xlink" x="0px" y="0px"
	 viewBox="0 0 1285 535" style="enable-background:new 0 0 1285 535;" xml:space="preserve">
<style type="text/css">
	.st0{fill:#FFFFFF;}
	.st1{fill:#FFFFFF;stroke:#FFFFFF;stroke-width:12.5529;stroke-miterlimit:10;}
</style>
<path class="st0" d="M1088.7,330.1c-11.4-26-37.2-43.9-65.7-44.9c-29-1-56.4,15.2-69.5,41.1c-13.4,26.4-8.8,58.9,10.7,81
	c19.4,22,51.1,30.4,79,21.5c19.1-6.2,35-20.1,43.9-38.1C1096.5,372,1097.1,349.3,1088.7,330.1 M1020.3,318.5
	c14.1,0,27.2,7.3,34.4,19.4c7.4,12.5,7.7,28.3,0.4,40.9c-6.9,12-19.8,19.5-33.6,19.9c-13.8,0.4-27.2-6.1-34.8-17.8
	c-8.3-12.7-8.7-29.1-1.3-42.3C992.6,326,1005.9,318.5,1020.3,318.5"/>
<polygon class="st0" points="1245.4,293.5 1220.3,361 1200.9,293.5 1178.5,293.5 1158.8,361.2 1133.7,293.5 1098.2,293.5 
	1151.8,430.6 1168.8,430.6 1189.6,358 1210.6,430.6 1227.3,430.6 1280.9,293.5 "/>
<g>
	<path class="st0" d="M919.3,321.4c-2.3-5.6-5.6-11-10-15.8c-4.5-4.8-14.7-15.4-39.3-15.4c-18.6,0-34.2,16-38.6,28.2l0.1-25h-34
		l0.1,162c13.2-12,24.6-25.7,34-40.8l0-66.3c0.2-1.8,0.7-4.3,1.4-7.4c0.7-2.8,2.2-5.7,4.4-8.7c2.2-2.9,5.5-5.4,9.7-7.6
		c4.2-2.1,10.2-3.2,17.7-3.2c5.9,0,10.6,1,14,3.1c3.4,2.1,6,4.6,7.6,7.5c1.8,3,2.9,6.3,3.4,9.6c0.6,3.7,0.9,6.9,0.9,9.4v80.2h34.1
		v-84.9C924.8,338.1,922.4,328.9,919.3,321.4z"/>
</g>
<path class="st1" d="M132,396.3c-4.9-3.2-15.1-9.8-16.5-10.7c-0.7,1-5.2,6.4-5.7,6.9c-4.4,4.5-9.8,8.3-15.6,10.7
	c-12.5,5.2-27.2,4.4-39.3-1.8c-11.8-6-20.6-17.1-24.2-29.9c-3.8-13.4-1.5-28.1,6-39.7c7.3-11.2,19.7-18.9,32.9-20.8
	c13.2-1.9,26.7,1.8,37,10.4c4.2,3.5,9.3,10,9.3,10s5.5-3.6,8.1-5.3c2.6-1.7,5.3-3.5,7.9-5.2c-15.2-22.4-42.6-33.6-69.1-28.2
	C36.4,298.1,14.8,320,10,346.6c-4.9,27.3,8,55.3,31.7,69.6c23.6,14.3,54.3,12.6,76.1-4.5C123.3,407.3,128.1,402.1,132,396.3z"/>
<path class="st1" d="M286.3,384.9c11.2-25.7,4.2-56.4-16.1-75.4c-20.5-19.1-51.4-23.7-76.4-10.8c-24.5,12.6-39.2,39.3-36.5,66.7
	c2.7,27,22.5,50.6,48.7,57.9c16.2,4.5,33.9,2.8,48.9-4.8C268.9,411.5,280,399.4,286.3,384.9 M258,392.5c-19.6,19.7-53.9,18-71-4.1
	c-17-22.1-11.7-56.2,12.4-70.9c20.2-12.3,47.5-7.5,62.1,11.1C276.3,347.5,275,375.5,258,392.5"/>
<path class="st1" d="M423.9,387.6c0-6-1.2-12.1-4.5-17.2c-3.3-5.2-8.3-9.6-13.6-12.8c-11.9-7.2-26.1-9.7-39.5-12.5
	c-5.9-1.3-11.9-2.7-17.6-4.9c-2.4-0.9-4.7-2-6.7-3.7c-2.4-2.1-3.1-5-3.1-8.1c0-12.3,14.4-16.6,24.4-17.4c7.6-0.6,15.5-0.1,22.7,2.4
	c3.3,1.2,6.6,2.7,9.4,4.9c0.8,0.6,4.4,4,4.4,4s11.6-4.1,17.4-6.2c-5.5-12.1-19.4-19.3-31.7-22.4c-12.8-3.2-27.2-3.3-39.9,0.6
	c-10.5,3.2-20.2,10-24.8,20.2c-4.8,10.8-3.8,24.4,4.3,33.3c9.5,10.5,23.9,13.4,37.2,16.3c6.6,1.5,13.3,2.8,19.8,4.8
	c5.3,1.6,11,3.6,15.3,7.1c5,4,6.7,10.6,4.7,16.7c-1.9,6-8.1,9.5-13.7,11.4c-6.7,2.2-13.9,2.8-20.9,2.7c-6.7-0.1-13.5-1.2-19.7-3.6
	c-7.6-2.9-13.4-8.7-13.4-8.7s-13.2,4.7-17.8,6.3c5.4,10.8,17.3,18,28.4,21.6c12.2,4,25.4,4.3,38.1,2.6c10.1-1.4,20.4-4.5,28.4-11
	C419.8,407.4,423.9,398,423.9,387.6"/>
<g>
	<path class="st0" d="M490.4,304.9h22.8c4.2,0,8.2,1.1,11.6,3.1v-2.3c0-13.2,10.7-23.9,23.9-23.9h22.3c4.6,0,8.9,1.3,12.6,3.6
		c0.8-12.1,10.8-21.6,23.1-21.6h7.8c-17.9-12.5-48.2-13.8-77.7-1.3c-23.1,9.8-40.5,25.8-48.6,42.6C489,305,489.7,304.9,490.4,304.9z
		"/>
</g>
<g>
	<path class="st0" d="M965.3,5.3C944,16.7,877.9,59.5,726.4,182.1c-11.8,9.6-24.6,20.7-25.1,21.2l14.9,52.6c0.5,1.9,0.3,3.9-0.7,5.6
		l-46.1,77.3c10.9,2.8,20.6,7.4,29,13.9c0.5-0.3,0.9-0.6,1.3-1c16.7-18.6,209.6-249.9,234.6-282.6c24.6-32.2,34-49.3,37.4-58.2
		C973.1,7,969,3.4,965.3,5.3z M784.1,218.6l-3.8,15.2c-0.6,2.4-2.7,4.1-5.2,4.1l-36.5,0.1c-3.2,0-5.7-2.8-5.4-5.9l3.7-36.3
		c0.2-2.5,2.1-4.4,4.6-4.8l15.5-2.3c2.8-0.4,5.5,1.5,6.1,4.3l2.3,11.6c0.4,1.9,1.8,3.5,3.7,4.1l11.3,3.4
		C783.2,212.9,784.8,215.8,784.1,218.6z"/>
</g>
<g>
	<path class="st0" d="M704,254.6l-12.5-41.6c-0.9-0.2-1.9-0.1-2.6,0.6l-46.3,39.1c-0.6,0.5-1,1.3-0.9,2.1l1.6,13.3
		c5.9,4.2,9.7,11.1,9.7,18.8v13.3c18.2-15,50.3-41,50.3-41C704.2,257.8,704.4,256.1,704,254.6z"/>
</g>
<path class="st0" d="M478.5,328.4c0-6.6,5.4-12,12-12h22.8c6.6,0,12,5.4,12,12v91.9c0,6.6-5.4,12-12,12h-22.8c-6.6,0-12-5.4-12-12
	V328.4z"/>
<g>
	<path class="st0" d="M602.7,345.5c1,0,2,0.1,3,0.2c7.7,0.8,14.6,4.5,19.4,10.6l16.6,20.8c0-0.3,0.1-0.6,0.1-0.9v-89.3
		c0-6.5-5.3-11.8-11.8-11.8h-23.1c-6.5,0-11.8,5.3-11.8,11.8v59.7C597.4,345.9,600,345.5,602.7,345.5z"/>
</g>
<g>
	<path class="st0" d="M697.8,366.7c-8.7-8.7-26.6-20.6-45.6-21.6l0,22.8c15.4,0.5,25.7,9.8,30.2,14.3c10.3,10.4,14.6,26,12,43.8
		c-2.7,19-12.8,38.1-28.4,53.8c-15.5,15.6-34.5,25.8-53.4,28.6c-17.7,2.6-33.2-1.7-43.5-12.1c-10.3-10.4-14.6-26-12-43.8
		c0.2-1.1,1.2-6.8,1.4-7.9c1.4-6,2.9-12.3,5.5-18.9h-15.1c-3.1,0-6-0.6-8.7-1.7c-2.5,9.1-4.5,25.3-4.6,25.4
		c-3.6,24.9,2.9,47.1,18.2,62.5c12.5,12.6,29.6,19.3,49,19.3c4.3,0,8.7-0.3,13.1-1c23.5-3.5,46.9-15.8,65.7-34.8
		c18.8-19,31.1-42.4,34.5-66.1C719.5,404.3,713.1,382.1,697.8,366.7z"/>
</g>
<g>
	<path class="st0" d="M604.4,429.1l-5.8,68.5c2.6,0,5.4-0.2,8.1-0.6c16-2.3,32.2-10.3,45.9-22.5c1.7-13.7,4-33.4,4.6-38.1
		c0.9-8.1,2.8-17.1-2.4-23.7l-39-49.1c-2.9-3.7-7.1-5.8-11.4-6.2c-4.2-0.4-8.6,0.7-12.2,3.5l-12.7,10.1c-7.2,5.8-8.4,16.4-2.7,23.6
		L604.4,429.1z"/>
</g>
<path class="st0" d="M572.3,361.8l11-8.7v-47.4c0-6.7-5.5-12.2-12.2-12.2h-22.3c-6.7,0-12.2,5.5-12.2,12.2v96.2
	c0,6.7,5.5,12.2,12.2,12.2h22.3c1.9,0,3.8-0.5,5.4-1.3l-8.7-11C558,389.5,560.1,371.6,572.3,361.8z"/>
<path class="st0" d="M878.7,343.4c-0.3-2-1-3.9-2-5.7c-0.7-1.2-2-2.4-3.7-3.5c-0.4-0.2-1.5-0.8-3.8-1.1
	c-5.9,63.6-40.1,118.9-89.9,153.3c-4.6-6.2-12-10.2-20.3-10.2c-14,0-25.4,11.4-25.4,25.4c0,14,11.4,25.4,25.4,25.4
	c14,0,25.4-11.4,25.4-25.4c0-2.3-0.3-4.5-0.9-6.5c40.1-19.9,73.5-51.2,96-89.6V351C879.4,349.7,879.3,347.3,878.7,343.4z"/>
<g>
	<path class="st0" d="M838.9,203.2c14,22.8,23.9,48.4,28.4,75.9c0.9-0.1,1.9-0.1,2.8-0.1c20.6,0,33.1,6.5,40.5,12.3c0-0.3,0-0.7,0-1
		c0-47-14.2-90.7-38.6-127C861.4,176.1,850.2,189.6,838.9,203.2z"/>
	<path class="st0" d="M768.9,133.6c14.8-11.7,28.6-22.5,41.4-32.4C773.7,76.3,729.6,61.8,682,61.8c-117.3,0-213.9,88.4-227,202.3
		C477.3,171.7,560.4,103,659.6,103C699.7,103,737,114.2,768.9,133.6z"/>
</g>
</svg>
